# xmcd
#
# Track frame offsets: 
#        150
#        34757
#        67559
#        95916
#        119893
#        161486
#        186259
#        227464
#
# Disc length: 3500 seconds
#
# Revision: 3
# Processed by: cddbd v1.5.2PL0 Copyright (c) Steve Scherf et al.
# Submitted via: ExactAudioCopy v1.0b6
#
DISCID=650daa08
DTITLE=Gallagher, Rory - Irish Tour '74 CD5
DYEAR=2014
DGENRE=Blues
TTITLE0=Messin' With The Kid
TTITLE1=Cradle Rock
TTITLE2=I Wonder Who
TTITLE3=Tattoo'd Lady
TTITLE4=Walk On Hot Coals
TTITLE5=Hands Off
TTITLE6=A Million Miles Away
TTITLE7=Laundromat
EXTD=
EXTT0=
EXTT1=
EXTT2=
EXTT3=
EXTT4=
EXTT5=
EXTT6=
EXTT7=
PLAYORDER=
